<?xml version="1.0" encoding="utf-8"?>
<!-- Generator: Adobe Illustrator 22.1.0, SVG Export Plug-In . SVG Version: 6.00 Build 0)  -->
<svg version="1.1" id="Layer_1" xmlns="http://www.w3.org/2000/svg" xmlns:xlink="http://www.w3.org/1999/xlink" x="0px" y="0px"
	 viewBox="0 0 111 98" style="enable-background:new 0 0 111 98;" xml:space="preserve">
<style type="text/css">
	.st0{fill:#F47D31;}
	.st1{fill:#333333;}
	.st2{fill:none;}
	.st3{fill:#63A4D9;}
</style>
<path class="st0" d="M61.3,3.5H17.7c-4,0-7.2,3.2-7.2,7.2v76.7c0,4,3.2,7.2,7.2,7.2h43.6c4,0,7.2-3.2,7.2-7.2V55.5V51H68l-3,2.2v4.7
	v11.3h-51V17.8h19.8h10.3l-0.3,0.8l-0.2,0.5c-0.1,0.2-0.1,0.4-0.2,0.6c0.2-0.2,0.4-0.5,0.5-0.8c2-4,4.8-4.6,4.8-4.6H33.6H13.9v-3.7
	c0-2.1,1.7-3.7,3.7-3.7h43.6c2.1,0,3.7,1.7,3.7,3.7V11v4h3.4v-4v-0.3C68.4,6.7,65.2,3.5,61.3,3.5z M65,72.7v14.6
	c0,2.1-1.7,3.7-3.7,3.7H17.7c-2.1,0-3.7-1.7-3.7-3.7V72.7H65z"/>
<path class="st1" d="M34,83.6c-1,0-1.7-0.8-1.7-1.7s0.8-1.7,1.7-1.7h10.9c1,0,1.7,0.8,1.7,1.7s-0.8,1.7-1.7,1.7H34z"/>
<path class="st1" d="M55.8,28.7c-1,0-1.7-0.8-1.7-1.7s0.8-1.7,1.7-1.7h33.1c1,0,1.7,0.8,1.7,1.7s-0.8,1.7-1.7,1.7H55.8z"/>
<path class="st1" d="M55.8,39.6c-1,0-1.7-0.8-1.7-1.7s0.8-1.7,1.7-1.7h16.3c1,0,1.7,0.8,1.7,1.7s-0.8,1.7-1.7,1.7H55.8z"/>
<path class="st2" d="M61,11h4v-0.3c0-2.1-1.7-3.7-3.7-3.7H17.7c-2.1,0-3.7,1.7-3.7,3.7v3.7h19.6c0-0.8,0.1-1.4,0.4-1.4
	c1,0,14.8,1.4,14.8,1.4H65V14h-4V11z"/>
<path class="st2" d="M34,20c0,0-0.1-1-0.3-2.2H13.9v51.4h51V53l-8,8c-0.3,0.3-0.8,0.5-1.2,0.5c-0.2,0-0.4,0-0.7-0.1
	c-0.6-0.3-1.1-0.9-1.1-1.6v-9.2h-3.7c-4,0-7.2-3.2-7.2-7.2V21.6c0-0.6,0.1-1.2,0.3-1.8C40.8,22.6,34,20,34,20z"/>
<path class="st2" d="M75,45v2.1h19.3c2.1,0,3.7-1.7,3.7-3.7V21.6c0-2.1-1.7-3.7-3.7-3.7h-44c-2.1,0-3.7,1.7-3.7,3.7v21.8
	c0,2.1,1.7,3.7,3.7,3.7h5.4c1,0,1.7,0.8,1.7,1.7v6.7l8-8c0.3-0.3,0.8-0.5,1.2-0.5H69V45H75z"/>
<path class="st2" d="M13.9,87.3c0,2.1,1.7,3.7,3.7,3.7h43.6c2.1,0,3.7-1.7,3.7-3.7V72.7h-51V87.3z"/>
<path class="st2" d="M13.9,87.3c0,2.1,1.7,3.7,3.7,3.7h43.6c2.1,0,3.7-1.7,3.7-3.7V72.7h-51V87.3z"/>
<polygon class="st2" points="65,53 64,54 65,53.2 "/>
<path class="st3" d="M94.3,14.4H68.4H65H48.8c0,0-2.8-0.4-4.8,3.6c-0.1,0.3-1,3-0.8,3.6v21.8c0,4,3.2,7.2,7.2,7.2h3.7v9.2
	c0,0.7,0.4,1.3,1.1,1.6c0.2,0.1,0.4,0.1,0.7,0.1c0.5,0,0.9-0.2,1.2-0.5l7-7l1-1v0.3l3-2.2h0.4v-0.5H69h6h19.3c4,0,7.2-3.2,7.2-7.2
	V21.6C101.5,17.6,98.3,14.4,94.3,14.4z M98.1,43.4c0,2.1-1.7,3.7-3.7,3.7H75h-6h-2.3c-0.4,0-0.9,0.2-1.2,0.5l-8,8v-6.7
	c0-1-0.8-1.7-1.7-1.7h-5.4c-2.1,0-3.7-1.7-3.7-3.7V21.6c0-2.1,1.7-3.7,3.7-3.7h44c2.1,0,3.7,1.7,3.7,3.7V43.4z"/>
</svg>
