<?xml version="1.0" encoding="utf-8"?>
<!-- Generator: Adobe Illustrator 22.1.0, SVG Export Plug-In . SVG Version: 6.00 Build 0)  -->
<svg version="1.1" id="Layer_1" xmlns="http://www.w3.org/2000/svg" xmlns:xlink="http://www.w3.org/1999/xlink" x="0px" y="0px"
	 viewBox="0 0 111 98" style="enable-background:new 0 0 111 98;" xml:space="preserve">
<style type="text/css">
	.st0{fill:#F47D31;}
	.st1{fill:#63A4D9;}
	.st2{fill:#333333;}
</style>
<path class="st0" d="M55.5,94.3c-12.2,0-23.7-4.8-32.4-13.4C14.5,72.2,9.7,60.7,9.7,48.5c0-12.2,4.8-23.7,13.4-32.4
	C31.8,7.5,43.3,2.7,55.5,2.7s23.7,4.8,32.4,13.4c8.7,8.7,13.4,20.2,13.4,32.4c0,12.2-4.8,23.7-13.4,32.4S67.7,94.3,55.5,94.3z
	 M55.5,6.9c-22.9,0-41.6,18.7-41.6,41.6c0,22.9,18.7,41.6,41.6,41.6s41.6-18.7,41.6-41.6C97.1,25.6,78.4,6.9,55.5,6.9z"/>
<path class="st0" d="M55.5,94c-12.2,0-23.6-4.7-32.2-13.3C14.7,72.1,10,60.7,10,48.5c0-12.2,4.7-23.6,13.3-32.2
	C31.9,7.7,43.3,3,55.5,3s23.6,4.7,32.2,13.3c8.6,8.6,13.3,20,13.3,32.2c0,12.2-4.7,23.6-13.3,32.2C79.1,89.3,67.7,94,55.5,94z
	 M55.5,6.6c-23.1,0-41.9,18.8-41.9,41.9c0,23.1,18.8,41.9,41.9,41.9s41.9-18.8,41.9-41.9C97.4,25.4,78.6,6.6,55.5,6.6z"/>
<path class="st1" d="M81.3,57.4c-4.9,0-8.9-4-8.9-8.9s4-8.9,8.9-8.9s8.9,4,8.9,8.9S86.2,57.4,81.3,57.4z M81.3,43.2
	c-2.9,0-5.3,2.4-5.3,5.3s2.4,5.3,5.3,5.3s5.3-2.4,5.3-5.3S84.2,43.2,81.3,43.2z"/>
<path class="st2" d="M55.5,57.4c-4.9,0-8.9-4-8.9-8.9s4-8.9,8.9-8.9s8.9,4,8.9,8.9S60.4,57.4,55.5,57.4z M55.5,43.2
	c-2.9,0-5.3,2.4-5.3,5.3s2.4,5.3,5.3,5.3s5.3-2.4,5.3-5.3S58.4,43.2,55.5,43.2z"/>
<path class="st1" d="M29.7,57.4c-4.9,0-8.9-4-8.9-8.9s4-8.9,8.9-8.9s8.9,4,8.9,8.9S34.6,57.4,29.7,57.4z M29.7,43.2
	c-2.9,0-5.3,2.4-5.3,5.3s2.4,5.3,5.3,5.3s5.3-2.4,5.3-5.3S32.6,43.2,29.7,43.2z"/>
</svg>
