<?xml version="1.0" encoding="utf-8"?>
<!-- Generator: Adobe Illustrator 22.1.0, SVG Export Plug-In . SVG Version: 6.00 Build 0)  -->
<svg version="1.1" id="Layer_1" xmlns="http://www.w3.org/2000/svg" xmlns:xlink="http://www.w3.org/1999/xlink" x="0px" y="0px"
	 viewBox="0 0 111 98" style="enable-background:new 0 0 111 98;" xml:space="preserve">
<style type="text/css">
	.st0{fill:none;}
	.st1{fill:#63A4D9;}
	.st2{fill:#F47D31;}
	.st3{fill:#333333;}
</style>
<g>
	<path class="st0" d="M37.1,62.6l2.7,12.3l1.9,0.1l3.7-13.2c0.1-0.4,0.3-0.6,0.5-0.9l20.1-21.2l-1.2-1.5l-27,15.2l1.1,7.7
		C38.8,61,38.1,62.1,37.1,62.6z"/>
	<polygon class="st0" points="50.4,62.1 50.4,62.1 50.5,62 	"/>
	<polygon class="st0" points="44,81.8 44.4,81.5 49.1,66.4 48.5,65.9 	"/>
	<path class="st1" d="M44,81.8l4.5-15.9l0.6,0.5l1.3-4.3l0,0l0.1-0.1l0.1-0.2l0.1,0l32.1-33.9c0.7-0.8,0.8-1.9,0.1-2.7
		c-0.4-0.5-1-0.8-1.6-0.8c-0.3,0-0.7,0.1-1,0.3L37.1,48.9l0.6,4.4l27-15.2l1.2,1.5L45.8,60.9c-0.2,0.2-0.4,0.5-0.5,0.9l-3.7,13.2
		l-1.9-0.1l-2.7-12.3c-1.3,0.7-3.2,0.5-5-3.6c0,0,0,0,0,0c1.8,8.4,6,27.3,6.2,28c0.4,1.8,1.3,2,1.7,2.1c0.2,0,0.3,0.1,0.5,0.1
		c0.7,0,1.3-0.4,2-0.9l2.1-6.8L44,81.8z"/>
	<polygon class="st2" points="50.5,61.8 50.5,62 50.6,61.8 	"/>
	<path class="st1" d="M37.1,62.6l-1.7-7.9l2.4-1.3l-0.6-4.4l-4.3,2.4l-0.2-0.1c-0.9,0.9-1.5,2.2-1.5,3.9l0.1,0c0,0,0.3,1.5,0.9,3.9
		c0,0,0,0,0,0C33.8,63.1,35.7,63.3,37.1,62.6z"/>
	<path class="st2" d="M104.7,6c-1-0.9-2.3-1.4-3.6-1.4c-0.6,0-1.1,0.1-1.6,0.3L8.6,35.3C6.5,36,5.1,37.9,5,40.1
		c-0.1,2.2,1.2,4.2,3.2,5.1l22.9,9.9c0-1.7,0.7-2.9,1.5-3.9L9.8,41.4c-0.6-0.3-0.7-0.9-0.7-1.1c0-0.2,0.1-0.8,0.8-1l90.9-30.4
		l0.2-0.1l0.2,0c0.2,0,0.5,0,0.8,0.3c0.2,0.1,0.5,0.5,0.3,1.1L84.4,87.6c-0.1,0.5-0.6,0.7-0.7,0.8l-0.2,0.1l-0.2,0
		c-0.3,0-0.5-0.1-0.7-0.3L60.1,70l-1.7,5.4l0.4,0.3l0.9-0.7L80,91.4c0.9,0.8,2.1,1.2,3.3,1.2c0.6,0,1.2-0.1,1.7-0.3
		c1.7-0.6,3-2,3.4-3.8l17.8-77.4C106.7,9.2,106.1,7.3,104.7,6z"/>
	<polygon class="st2" points="60.1,70 50.4,62.1 49.1,66.4 56.5,72.4 55.5,73.1 58.4,75.5 	"/>
	<path class="st3" d="M58.4,75.5l-2.9-2.4l-4,3l-7.1,5.4l-2.1,6.8c0.1-0.1,0.1-0.1,0.2-0.2l12.3-9.3l3.3-2.5l0.7-0.5L58.4,75.5z"/>
</g>
</svg>
