<?xml version="1.0" encoding="utf-8"?>
<!-- Generator: Adobe Illustrator 22.1.0, SVG Export Plug-In . SVG Version: 6.00 Build 0)  -->
<svg version="1.1" id="Layer_1" xmlns="http://www.w3.org/2000/svg" xmlns:xlink="http://www.w3.org/1999/xlink" x="0px" y="0px"
	 viewBox="0 0 225 178" style="enable-background:new 0 0 225 178;" xml:space="preserve">
<style type="text/css">
	.st0{fill:#63A4D9;}
	.st1{fill:#F47D31;}
	.st2{fill:#333333;}
</style>
<path class="st0" d="M88.8,67.3c-1.3,0-2.4-1.1-2.4-2.4c0-1.3,1.1-2.4,2.4-2.4h46.3c1.3,0,2.4,1.1,2.4,2.4c0,1.3-1.1,2.4-2.4,2.4
	H88.8z"/>
<path class="st0" d="M88.8,88.3c-1.3,0-2.4-1.1-2.4-2.4c0-1.3,1.1-2.4,2.4-2.4h46.3c1.3,0,2.4,1.1,2.4,2.4c0,1.3-1.1,2.4-2.4,2.4
	H88.8z"/>
<path class="st0" d="M88.8,109.3c-1.3,0-2.4-1.1-2.4-2.4c0-1.3,1.1-2.4,2.4-2.4h46.3c1.3,0,2.4,1.1,2.4,2.4c0,1.3-1.1,2.4-2.4,2.4
	H88.8z"/>
<path class="st0" d="M88.8,130.3c-1.3,0-2.4-1.1-2.4-2.4c0-1.3,1.1-2.4,2.4-2.4h46.3c1.3,0,2.4,1.1,2.4,2.4c0,1.3-1.1,2.4-2.4,2.4
	H88.8z"/>
<path class="st1" d="M20.2,88.3c-1.3,0-2.4-1.1-2.4-2.4c0-1.3,1.1-2.4,2.4-2.4h46.3c1.3,0,2.4,1.1,2.4,2.4c0,1.3-1.1,2.4-2.4,2.4
	H20.2z"/>
<path class="st1" d="M20.2,109.3c-1.3,0-2.4-1.1-2.4-2.4c0-1.3,1.1-2.4,2.4-2.4h46.3c1.3,0,2.4,1.1,2.4,2.4c0,1.3-1.1,2.4-2.4,2.4
	H20.2z"/>
<path class="st1" d="M20.2,130.3c-1.3,0-2.4-1.1-2.4-2.4c0-1.3,1.1-2.4,2.4-2.4h46.3c1.3,0,2.4,1.1,2.4,2.4c0,1.3-1.1,2.4-2.4,2.4
	H20.2z"/>
<path class="st1" d="M160.2,88.3c-1.3,0-2.4-1.1-2.4-2.4c0-1.3,1.1-2.4,2.4-2.4h46.3c1.3,0,2.4,1.1,2.4,2.4c0,1.3-1.1,2.4-2.4,2.4
	H160.2z"/>
<path class="st1" d="M160.2,109.3c-1.3,0-2.4-1.1-2.4-2.4c0-1.3,1.1-2.4,2.4-2.4h46.3c1.3,0,2.4,1.1,2.4,2.4c0,1.3-1.1,2.4-2.4,2.4
	H160.2z"/>
<path class="st1" d="M160.2,130.3c-1.3,0-2.4-1.1-2.4-2.4c0-1.3,1.1-2.4,2.4-2.4h46.3c1.3,0,2.4,1.1,2.4,2.4c0,1.3-1.1,2.4-2.4,2.4
	H160.2z"/>
<path class="st0" d="M88.8,152.7c-1.3,0-2.4-1.1-2.4-2.4c0-1.3,1.1-2.4,2.4-2.4h46.3c1.3,0,2.4,1.1,2.4,2.4c0,1.3-1.1,2.4-2.4,2.4
	H88.8z"/>
<path class="st1" d="M149.3,152.4c-0.9,0-1.7-0.7-1.7-1.7V20.5c0-0.9,0.7-1.7,1.7-1.7h69c0.9,0,1.7,0.7,1.7,1.7v130.2
	c0,0.9-0.7,1.7-1.7,1.7H149.3z M150.9,149h65.6V55.5h-65.6V149z M150.9,52.2h65.6v-30h-65.6V52.2z"/>
<path class="st1" d="M6.5,152.4c-0.9,0-1.7-0.7-1.7-1.7V20.5c0-0.9,0.7-1.7,1.7-1.7h69c0.9,0,1.7,0.7,1.7,1.7v130.2
	c0,0.9-0.7,1.7-1.7,1.7H6.5z M8.1,149h65.6V55.5H8.1V149z M8.1,52.2h65.6v-30H8.1V52.2z"/>
<path class="st0" d="M75.1,173.8c-1.1,0-2.1-0.9-2.1-2.1V7.9c0-1.1,0.9-2.1,2.1-2.1h74.6c1.1,0,2.1,0.9,2.1,2.1v163.8
	c0,1.1-0.9,2.1-2.1,2.1H75.1z M77.1,169.6h70.4V43.3H77.1V169.6z M77.1,39.1h70.4V9.9H77.1V39.1z"/>
<g>
	<path class="st2" d="M27.9,43V33h3.4c1.2,0,2.1,0.2,2.7,0.7s0.9,1.1,0.9,2.1c0,0.5-0.1,0.9-0.4,1.2s-0.6,0.6-1,0.8v0
		c0.6,0.1,1,0.4,1.3,0.8c0.3,0.4,0.4,0.9,0.4,1.5c0,1-0.3,1.7-0.9,2.2c-0.6,0.5-1.5,0.7-2.7,0.7H27.9z M29.9,37.2h1.5
		c0.5,0,0.9-0.1,1.2-0.3s0.4-0.5,0.4-1c0-0.5-0.1-0.8-0.4-1c-0.3-0.2-0.7-0.3-1.3-0.3h-1.4V37.2z M29.9,38.6v2.9h1.9
		c0.5,0,0.9-0.1,1.2-0.4s0.4-0.6,0.4-1c0-0.5-0.1-0.9-0.3-1.1s-0.6-0.4-1.1-0.4H29.9z"/>
	<path class="st2" d="M41,43c-0.1-0.1-0.1-0.3-0.2-0.4s-0.1-0.3-0.1-0.5c-0.2,0.3-0.5,0.6-0.8,0.8s-0.7,0.3-1.2,0.3
		c-0.7,0-1.3-0.2-1.7-0.6c-0.4-0.4-0.6-0.9-0.6-1.6c0-0.7,0.3-1.3,0.8-1.7s1.4-0.6,2.5-0.6h1V38c0-0.4-0.1-0.6-0.3-0.8
		s-0.5-0.3-0.8-0.3c-0.3,0-0.6,0.1-0.8,0.2c-0.2,0.2-0.3,0.4-0.3,0.7h-2c0-0.7,0.3-1.2,0.9-1.7c0.6-0.4,1.3-0.7,2.3-0.7
		c0.9,0,1.6,0.2,2.2,0.7c0.5,0.4,0.8,1.1,0.8,1.9v3.1c0,0.4,0,0.7,0.1,1c0.1,0.3,0.1,0.6,0.2,0.9H41z M39.3,41.6
		c0.3,0,0.6-0.1,0.8-0.2s0.4-0.3,0.6-0.5v-1.2h-1c-0.4,0-0.8,0.1-1,0.3c-0.2,0.2-0.3,0.5-0.3,0.8c0,0.3,0.1,0.5,0.2,0.6
		C38.8,41.5,39,41.6,39.3,41.6z"/>
	<path class="st2" d="M48.2,40.9c0-0.2-0.1-0.4-0.3-0.6c-0.2-0.2-0.6-0.3-1.2-0.4c-0.9-0.2-1.6-0.4-2-0.8c-0.4-0.3-0.7-0.8-0.7-1.4
		c0-0.7,0.3-1.2,0.8-1.6s1.2-0.7,2.2-0.7c1,0,1.7,0.2,2.3,0.7c0.6,0.4,0.8,1,0.8,1.7h-2c0-0.3-0.1-0.5-0.3-0.7
		c-0.2-0.2-0.5-0.3-0.8-0.3c-0.3,0-0.6,0.1-0.8,0.2S46,37.4,46,37.6c0,0.2,0.1,0.4,0.3,0.6c0.2,0.1,0.6,0.3,1.2,0.4
		c0.9,0.2,1.6,0.5,2,0.8c0.4,0.3,0.6,0.8,0.6,1.5c0,0.7-0.3,1.2-0.8,1.6c-0.6,0.4-1.3,0.6-2.3,0.6c-1,0-1.8-0.2-2.4-0.7
		c-0.6-0.5-0.8-1.1-0.8-1.7h1.9c0,0.4,0.1,0.7,0.4,0.9c0.2,0.2,0.6,0.3,1,0.3c0.4,0,0.7-0.1,0.8-0.2S48.2,41.2,48.2,40.9z"/>
	<path class="st2" d="M53.5,33.8h-2v-1.5h2V33.8z M53.5,43h-2v-7.4h2V43z"/>
	<path class="st2" d="M58.2,41.6c0.4,0,0.7-0.1,0.9-0.3s0.3-0.5,0.3-0.8h1.9c0,0.8-0.3,1.4-0.9,1.9c-0.6,0.5-1.3,0.7-2.2,0.7
		c-1.1,0-2-0.3-2.6-1c-0.6-0.7-0.9-1.6-0.9-2.7v-0.2c0-1.1,0.3-2,0.9-2.7c0.6-0.7,1.4-1,2.5-1c0.9,0,1.7,0.3,2.2,0.8
		s0.8,1.2,0.8,2.1h-1.9c0-0.4-0.1-0.7-0.3-1S58.6,37,58.2,37c-0.5,0-0.9,0.2-1.1,0.6c-0.2,0.4-0.3,0.9-0.3,1.6v0.2
		c0,0.7,0.1,1.2,0.3,1.6S57.7,41.6,58.2,41.6z"/>
</g>
<g>
	<path class="st2" d="M104.6,26.7v3.6h-2v-10h4c1.2,0,2.1,0.3,2.7,0.9c0.6,0.6,1,1.3,1,2.3s-0.3,1.7-1,2.3c-0.6,0.6-1.5,0.9-2.7,0.9
		H104.6z M104.6,25.2h2c0.6,0,1-0.1,1.3-0.4c0.3-0.3,0.4-0.7,0.4-1.2c0-0.5-0.1-0.9-0.4-1.2c-0.3-0.3-0.7-0.5-1.3-0.5h-2V25.2z"/>
	<path class="st2" d="M115.5,24.7l-0.8,0c-0.3,0-0.5,0.1-0.7,0.2c-0.2,0.1-0.3,0.3-0.4,0.5v5h-2V23h1.9l0.1,1.1l0,0
		c0.2-0.4,0.4-0.7,0.7-0.9c0.3-0.2,0.6-0.3,1-0.3c0.1,0,0.2,0,0.3,0c0.1,0,0.2,0,0.3,0.1L115.5,24.7z"/>
	<path class="st2" d="M116.2,26.6c0-1.1,0.3-2,0.9-2.7s1.5-1,2.6-1c1.1,0,2,0.3,2.6,1c0.6,0.7,0.9,1.6,0.9,2.7v0.1
		c0,1.1-0.3,2-0.9,2.7c-0.6,0.7-1.5,1-2.6,1c-1.1,0-2-0.3-2.6-1c-0.6-0.7-0.9-1.6-0.9-2.7V26.6z M118.2,26.7c0,0.7,0.1,1.2,0.3,1.6
		c0.2,0.4,0.6,0.6,1.2,0.6c0.5,0,0.9-0.2,1.1-0.6c0.2-0.4,0.4-0.9,0.4-1.6v-0.1c0-0.7-0.1-1.2-0.4-1.6c-0.2-0.4-0.6-0.6-1.1-0.6
		c-0.5,0-0.9,0.2-1.1,0.6c-0.2,0.4-0.4,0.9-0.4,1.6V26.7z"/>
</g>
<g>
	<path class="st2" d="M159.2,37.9v3.6h-2v-10h4c1.2,0,2.1,0.3,2.7,0.9c0.6,0.6,1,1.3,1,2.3s-0.3,1.7-1,2.3c-0.6,0.6-1.5,0.9-2.7,0.9
		H159.2z M159.2,36.4h2c0.6,0,1-0.1,1.3-0.4c0.3-0.3,0.4-0.7,0.4-1.2c0-0.5-0.1-0.9-0.4-1.2c-0.3-0.3-0.7-0.5-1.3-0.5h-2V36.4z"/>
	<path class="st2" d="M170.1,35.9l-0.8,0c-0.3,0-0.5,0.1-0.7,0.2c-0.2,0.1-0.3,0.3-0.4,0.5v5h-2v-7.4h1.9l0.1,1.1l0,0
		c0.2-0.4,0.4-0.7,0.7-0.9c0.3-0.2,0.6-0.3,1-0.3c0.1,0,0.2,0,0.3,0c0.1,0,0.2,0,0.3,0.1L170.1,35.9z"/>
	<path class="st2" d="M174.4,41.7c-1.1,0-1.9-0.3-2.6-1c-0.6-0.7-0.9-1.5-0.9-2.6v-0.3c0-1.1,0.3-2,0.9-2.7c0.6-0.7,1.4-1,2.4-1
		c1,0,1.8,0.3,2.3,0.9c0.5,0.6,0.8,1.4,0.8,2.5v1.1h-4.5c0.1,0.5,0.2,0.9,0.5,1.2s0.7,0.5,1.2,0.5c0.5,0,0.8,0,1.1-0.1
		c0.3-0.1,0.6-0.2,1-0.4l0.4,1.3c-0.3,0.2-0.7,0.4-1.1,0.5S175,41.7,174.4,41.7z M174.2,35.6c-0.4,0-0.7,0.1-0.9,0.4
		c-0.2,0.3-0.3,0.7-0.4,1.2h2.5V37c0-0.4-0.1-0.8-0.3-1C174.9,35.7,174.6,35.6,174.2,35.6z"/>
	<path class="st2" d="M180.4,34.2l0.1,0.9l0,0c0.2-0.4,0.5-0.6,0.9-0.8s0.8-0.3,1.2-0.3c0.5,0,0.9,0.1,1.2,0.3
		c0.3,0.2,0.6,0.5,0.8,1c0.2-0.4,0.5-0.7,0.9-0.9c0.4-0.2,0.8-0.3,1.3-0.3c0.7,0,1.3,0.2,1.7,0.7c0.4,0.5,0.6,1.3,0.6,2.3v4.5h-2
		v-4.5c0-0.6-0.1-1-0.3-1.2s-0.5-0.3-0.8-0.3c-0.3,0-0.5,0.1-0.7,0.2c-0.2,0.1-0.4,0.3-0.5,0.5c0,0.1,0,0.2,0,0.2c0,0.1,0,0.1,0,0.2
		v4.9h-2v-4.5c0-0.6-0.1-0.9-0.3-1.2c-0.2-0.2-0.5-0.3-0.8-0.3c-0.3,0-0.5,0.1-0.7,0.2c-0.2,0.1-0.4,0.2-0.5,0.4v5.4h-2v-7.4H180.4z
		"/>
	<path class="st2" d="M192.7,32.4h-2v-1.5h2V32.4z M192.7,41.6h-2v-7.4h2V41.6z"/>
	<path class="st2" d="M198.9,40.6c-0.2,0.4-0.5,0.6-0.9,0.8s-0.7,0.3-1.2,0.3c-0.8,0-1.4-0.2-1.8-0.7s-0.6-1.3-0.6-2.3v-4.5h2v4.5
		c0,0.6,0.1,0.9,0.3,1.2c0.2,0.2,0.4,0.3,0.8,0.3c0.3,0,0.6,0,0.8-0.2s0.4-0.3,0.6-0.5v-5.4h2v7.4H199L198.9,40.6z"/>
	<path class="st2" d="M204.1,34.2l0.1,0.9l0,0c0.2-0.4,0.5-0.6,0.9-0.8s0.8-0.3,1.2-0.3c0.5,0,0.9,0.1,1.2,0.3
		c0.3,0.2,0.6,0.5,0.8,1c0.2-0.4,0.5-0.7,0.9-0.9c0.4-0.2,0.8-0.3,1.3-0.3c0.7,0,1.3,0.2,1.7,0.7c0.4,0.5,0.6,1.3,0.6,2.3v4.5h-2
		v-4.5c0-0.6-0.1-1-0.3-1.2s-0.5-0.3-0.8-0.3c-0.3,0-0.5,0.1-0.7,0.2c-0.2,0.1-0.4,0.3-0.5,0.5c0,0.1,0,0.2,0,0.2c0,0.1,0,0.1,0,0.2
		v4.9h-2v-4.5c0-0.6-0.1-0.9-0.3-1.2c-0.2-0.2-0.5-0.3-0.8-0.3c-0.3,0-0.5,0.1-0.7,0.2c-0.2,0.1-0.4,0.2-0.5,0.4v5.4h-2v-7.4H204.1z
		"/>
</g>
</svg>
