<?xml version="1.0" encoding="utf-8"?>
<!-- Generator: Adobe Illustrator 22.1.0, SVG Export Plug-In . SVG Version: 6.00 Build 0)  -->
<svg version="1.1" id="Layer_1" xmlns="http://www.w3.org/2000/svg" xmlns:xlink="http://www.w3.org/1999/xlink" x="0px" y="0px"
	 viewBox="0 0 125 98" style="enable-background:new 0 0 125 98;" xml:space="preserve">
<style type="text/css">
	.st0{fill:#F47D31;}
	.st1{fill:#63A4D9;}
	.st2{fill:#333333;}
</style>
<path class="st0" d="M5,93.3c-1.1,0-2-0.9-2-2v-85c0-1.1,0.9-2,2-2h114.3c1.1,0,2,0.9,2,2v85c0,1.1-0.9,2-2,2H5z M117.3,89.3V32.1H7
	v57.2H117.3z M117.3,28.1V8.3H7v19.9H117.3z"/>
<path class="st0" d="M5,92.8c-0.8,0-1.5-0.7-1.5-1.5v-85c0-0.8,0.7-1.5,1.5-1.5h114.3c0.8,0,1.5,0.7,1.5,1.5v85
	c0,0.8-0.7,1.5-1.5,1.5H5z M6.5,89.8h111.3V31.6H6.5V89.8z M6.5,28.6h111.3V7.8H6.5V28.6z"/>
<path class="st1" d="M106.9,20.9c-1.8,0-3.3-1.5-3.3-3.3c0-1.8,1.5-3.3,3.3-3.3c1.8,0,3.3,1.5,3.3,3.3
	C110.2,19.5,108.7,20.9,106.9,20.9z"/>
<path class="st1" d="M106.9,20.4c-1.6,0-2.8-1.3-2.8-2.8s1.3-2.8,2.8-2.8s2.8,1.3,2.8,2.8S108.4,20.4,106.9,20.4z"/>
<path class="st1" d="M92.4,20.9c-1.8,0-3.3-1.5-3.3-3.3c0-1.8,1.5-3.3,3.3-3.3c1.8,0,3.3,1.5,3.3,3.3C95.7,19.5,94.2,20.9,92.4,20.9
	z"/>
<path class="st1" d="M92.4,20.4c-1.6,0-2.8-1.3-2.8-2.8s1.3-2.8,2.8-2.8s2.8,1.3,2.8,2.8S94,20.4,92.4,20.4z"/>
<path class="st1" d="M77.9,20.9c-1.8,0-3.3-1.5-3.3-3.3c0-1.8,1.5-3.3,3.3-3.3c1.8,0,3.3,1.5,3.3,3.3C81.3,19.5,79.8,20.9,77.9,20.9
	z"/>
<path class="st1" d="M77.9,20.4c-1.6,0-2.8-1.3-2.8-2.8s1.3-2.8,2.8-2.8s2.8,1.3,2.8,2.8S79.5,20.4,77.9,20.4z"/>
<path class="st1" d="M41.6,73.8c-0.6,0-1.1-0.3-1.5-0.7c-0.3-0.4-0.5-0.9-0.5-1.4c0-0.5,0.3-1,0.7-1.4l11.3-9.6l-11.3-9.6
	c-0.4-0.3-0.6-0.8-0.7-1.4c0-0.5,0.1-1,0.5-1.4c0.4-0.4,0.9-0.7,1.5-0.7c0.5,0,0.9,0.2,1.3,0.5l13,11.1c0.4,0.4,0.7,0.9,0.7,1.5
	c0,0.6-0.3,1.1-0.7,1.5l-13,11.1C42.5,73.6,42.1,73.8,41.6,73.8z"/>
<path class="st1" d="M41.6,73.3c-0.4,0-0.9-0.2-1.1-0.5c-0.5-0.6-0.5-1.6,0.2-2.1l11.7-10l-11.7-10c-0.3-0.3-0.5-0.6-0.5-1
	c0-0.4,0.1-0.8,0.3-1.1c0.3-0.3,0.7-0.5,1.1-0.5c0.4,0,0.7,0.1,1,0.4l13,11.1c0.3,0.3,0.5,0.7,0.5,1.1s-0.2,0.8-0.5,1.1l-13,11.1
	C42.3,73.2,41.9,73.3,41.6,73.3z"/>
<path class="st2" d="M66.9,73.8c-1.1,0-2-0.9-2-2s0.9-2,2-2h15.7c1.1,0,2,0.9,2,2s-0.9,2-2,2H66.9z"/>
<path class="st2" d="M66.9,73.3c-0.8,0-1.5-0.7-1.5-1.5s0.7-1.5,1.5-1.5h15.7c0.8,0,1.5,0.7,1.5,1.5s-0.7,1.5-1.5,1.5H66.9z"/>
</svg>
