<?xml version="1.0" encoding="utf-8"?>
<!-- Generator: Adobe Illustrator 21.0.2, SVG Export Plug-In . SVG Version: 6.00 Build 0)  -->
<svg version="1.1" id="Layer_1" xmlns="http://www.w3.org/2000/svg" xmlns:xlink="http://www.w3.org/1999/xlink" x="0px" y="0px"
	 viewBox="0 0 300 65" style="enable-background:new 0 0 300 65;" xml:space="preserve">
<style type="text/css">
	.st0{fill:#FF690D;}
</style>
<g>
	<path class="st0" d="M1,23.2c0-2.7,2.3-5.1,5.1-5.1s5.1,2.3,5.1,5.1v1.9c2.7-3.9,6.6-7.8,13.6-7.8c6.6,0,10.9,3.1,13.6,7.8
		c3.5-4.7,8.2-7.8,15.2-7.8c9.7,0,15.6,6.2,15.6,17.1v24.2c0,2.7-2.3,5.1-5.1,5.1c-2.7,0-5.1-2.3-5.1-5.1v-21c0-7-3.5-10.9-9-10.9
		s-9.7,3.9-9.7,11.3v20.6c0,2.7-2.3,5.1-5.1,5.1c-2.7,0-5.1-2.3-5.1-5.1v-21c0-7-3.5-10.9-9-10.9c-5.8,0-9.7,4.3-9.7,11.3v20.6
		c0,2.7-2.3,5.1-5.1,5.1s-5.1-2.3-5.1-5.1V23.2H1z"/>
	<path class="st0" d="M79.7,41.5L79.7,41.5c0-12.9,10.1-23.8,24.2-23.8c13.6,0,23.8,10.5,23.8,23.4l0,0c0,12.9-10.1,23.4-24.2,23.4
		C89.8,64.5,79.7,54,79.7,41.5z M117.1,41.5L117.1,41.5c0-8.2-5.8-14.8-13.6-14.8c-8.2,0-13.6,6.6-13.6,14.4l0,0
		c0,7.8,5.8,14.4,13.6,14.4C112,55.5,117.1,49.3,117.1,41.5z"/>
	<path class="st0" d="M138.1,6.1c0-2.7,2.3-5.1,5.1-5.1c2.7,0,5.1,2.3,5.1,5.1v19.9c3.5-4.7,8.2-8.6,15.2-8.6c10.5,0,21,8.2,21,23.4
		l0,0c0,14.8-10.1,23.4-21,23.4c-7.4,0-12.1-3.9-15.2-7.8v2.3c0,2.7-2.3,5.1-5.1,5.1c-2.7,0-5.1-2.3-5.1-5.1V6.1z M174,41.1
		L174,41.1c0-9-5.8-14.4-12.9-14.4c-7,0-13.2,5.8-13.2,14.4l0,0c0,8.6,6.2,14.4,13.2,14.4C168.1,55.5,174,50.1,174,41.1z"/>
	<path class="st0" d="M215.6,64.5c-12.9,0-23-9.4-23-23.4l0,0c0-12.9,9-23.4,21.8-23.4c14.4,0,21.4,11.7,21.4,22.2
		c0,2.7-2.3,5.1-4.7,5.1h-28.1c1.2,7.4,6.2,11.3,12.9,11.3c4.3,0,7.8-1.6,10.5-3.9c0.8-0.8,1.6-0.8,2.7-0.8c2.3,0,3.9,1.9,3.9,4.3
		c0,1.2-0.8,2.3-1.2,3.1C227.7,62.2,222.7,64.5,215.6,64.5z M225.8,38c-0.8-6.6-4.7-11.7-11.3-11.7c-6.2,0-10.9,4.7-11.7,11.7H225.8
		z"/>
	<path class="st0" d="M244.1,41.5L244.1,41.5c0-12.9,10.1-23.8,24.2-23.8c13.6,0,23.8,10.5,23.8,23.4l0,0
		c0,12.9-10.1,23.4-24.2,23.4C254.2,64.5,244.1,54,244.1,41.5z M281.9,41.5L281.9,41.5c0-8.2-5.8-14.8-13.6-14.8
		c-8.2,0-13.6,6.6-13.6,14.4l0,0c0,7.8,5.8,14.4,13.6,14.4C276.4,55.5,281.9,49.3,281.9,41.5z"/>
</g>
</svg>
