<?xml version="1.0" encoding="utf-8"?>
<!-- Generator: Adobe Illustrator 22.0.1, SVG Export Plug-In . SVG Version: 6.00 Build 0)  -->
<svg version="1.1" id="Layer_1" xmlns="http://www.w3.org/2000/svg" xmlns:xlink="http://www.w3.org/1999/xlink" x="0px" y="0px"
	 viewBox="0 0 120 120" style="enable-background:new 0 0 120 120;" xml:space="preserve">
<style type="text/css">
	.st0{fill:#F47D31;}
	.st1{fill:#333333;}
	.st2{fill:#63A4D9;}
</style>
<g>
	<path class="st0" d="M63.4,106.2c-1.9,0-3.4-1.5-3.4-3.4V102l-0.3,0c-0.6,0-1.3,0-1.9,0c-1,0-2,0-3-0.1l-0.3,0v1
		c0,1.9-1.5,3.4-3.4,3.4h-11c-1.8,0-3.2-1.4-3.4-3.2c0-0.1,0-0.2,0-0.2v-0.8c-0.1-1.6-0.6-5.6-3.7-8.8c-2.2-2.2-4-5.1-5.6-8.5
		c-1-1.9-1.7-3.9-2.2-5.9c-0.8-2.5-0.8-5.6-0.8-6.2c0-1.5,0.1-2.9,0.4-4.3c0.1-0.8,0.8-1.3,1.6-1.3c0.1,0,0.2,0,0.3,0
		c0.4,0.1,0.8,0.3,1,0.6s0.3,0.8,0.3,1.2c-0.2,1.3-0.3,2.6-0.3,3.8c0,0.4,0,3.1,0.6,5.3l0,0.1c0.4,1.8,1.1,3.6,2,5.2l0,0.1l0,0
		c1.5,3.1,3.2,5.7,5,7.6c3.9,4,4.5,8.9,4.6,10.9v1.1h11.4v-2.9c0-0.5,0.2-0.9,0.5-1.2c0.3-0.3,0.7-0.4,1-0.4c0.1,0,0.1,0,0.2,0
		c1.5,0.2,3.1,0.3,4.6,0.3c1.2,0,2.5-0.1,3.7-0.2c0.1,0,0.1,0,0.2,0c0.4,0,0.8,0.1,1.1,0.4c0.3,0.3,0.5,0.7,0.5,1.2v2.8h11.4v-2.9
		c0-1.2,0.4-5.3,4.2-8.7l0.4-0.4c2.2-2.5,6.6-8.2,7.6-11.6c0.2-0.7,0.8-1.1,1.5-1.1h2.3c1,0,1.7-0.8,1.7-1.7v-8.2
		c0-1-0.8-1.7-1.7-1.7h-2.4c-0.7,0-1.3-0.4-1.5-1.1c-1.5-4.6-4.4-8.7-8.5-12c-0.4-0.3-0.6-0.7-0.6-1.2c-0.9-3.1-0.3-6.3,1.6-9.3
		c0.1-0.1,0.1-0.3,0-0.4c-0.1-0.2-0.3-0.2-0.4-0.2c-5.1,0.6-7.8,3.1-9.1,5.1c-0.3,0.4-0.8,0.7-1.3,0.7c-0.2,0-0.3,0-0.5-0.1
		c-2-0.6-4.1-1.1-6.2-1.3c-0.4,0-0.8-0.2-1-0.6c-0.3-0.3-0.4-0.8-0.3-1.2c0.1-0.8,0.8-1.4,1.6-1.4c0.1,0,0.1,0,0.2,0
		c1.8,0.2,3.6,0.6,5.5,1.1l0.2,0.1l0.1-0.1c2.5-3,6-4.8,10.5-5.4c0.2,0,0.3,0,0.5,0c1.2,0,2.3,0.6,3,1.7c0.8,1.2,0.8,2.6,0,3.8
		c-1.5,2.3-1.9,4.6-1.3,6.7l0,0.1l0.1,0.1c3.9,3.3,6.8,7.3,8.5,11.7l0.1,0.2h1.3c2.7,0,4.9,2.2,4.9,4.9v8.2c0,2.7-2.2,4.9-4.9,4.9
		h-1.2l-0.1,0.2c-2,4.7-7.3,10.8-7.8,11.5c-0.1,0.1-0.1,0.1-0.1,0.1L81,93.8c-2.6,2.3-3.1,5-3.2,6.4l0,2.7c0,1.9-1.5,3.4-3.4,3.4
		H63.4z"/>
	<path class="st1" d="M39.8,65c-8.4,0-15.2-6.8-15.2-15.2s6.8-15.2,15.2-15.2S55,41.5,55,49.9S48.2,65,39.8,65z M39.8,37.9
		c-6.6,0-12,5.4-12,12s5.4,12,12,12s12-5.4,12-12S46.4,37.9,39.8,37.9z"/>
	<path class="st2" d="M57.5,34.8c-5.8,0-10.5-4.7-10.5-10.5s4.7-10.5,10.5-10.5s10.5,4.7,10.5,10.5S63.2,34.8,57.5,34.8z M57.4,17
		c-4,0-7.3,3.3-7.3,7.3s3.3,7.3,7.3,7.3s7.3-3.3,7.3-7.3S61.5,17,57.4,17z"/>
</g>
</svg>
