<?xml version="1.0" encoding="utf-8"?>
<!-- Generator: Adobe Illustrator 22.0.1, SVG Export Plug-In . SVG Version: 6.00 Build 0)  -->
<svg version="1.1" id="Layer_1" xmlns="http://www.w3.org/2000/svg" xmlns:xlink="http://www.w3.org/1999/xlink" x="0px" y="0px"
	 viewBox="0 0 120 120" style="enable-background:new 0 0 120 120;" xml:space="preserve">
<style type="text/css">
	.st0{fill:#F47D31;}
	.st1{fill:#63A4D9;}
	.st2{fill:#333333;}
</style>
<circle class="st0" cx="79.7" cy="90.6" r="1.4"/>
<path class="st0" d="M25.2,102.5c-1.3,0-2.4-0.5-3.3-1.4c-0.9-0.9-1.4-2.1-1.4-3.4V50c0-1.1,0.4-2.2,1.1-3c0.9-1.1,2.2-1.7,3.7-1.7
	h9.1v-23c0-2.6,2.1-4.7,4.7-4.7h47.8c2.6,0,4.7,2.1,4.7,4.7v23h9.1c1.4,0,2.8,0.6,3.7,1.7c0.7,0.8,1.1,1.9,1.1,3v47.8
	c0,1.3-0.5,2.5-1.4,3.3c-0.9,0.9-2.1,1.4-3.3,1.4H25.2z M25.6,99.7h74.9L63,68.5L25.6,99.7z M73.5,73.6L102.7,98V50.1L73.5,73.6z
	 M23.3,98l29.3-24.4L23.3,50.1V98z M63,65.3c0.3,0,0.6,0.1,0.9,0.3l7.4,6.1l17.6-14.1V22.2c0-1.1-0.9-1.9-1.9-1.9H39.1
	c-1.1,0-1.9,0.9-1.9,1.9v35.4l17.6,14.1l7.4-6.1C62.4,65.4,62.7,65.3,63,65.3z M91.6,55.4l9.2-7.4h-9.2V55.4z M34.4,55.4V48h-9.2
	L34.4,55.4z"/>
<path class="st1" d="M61.3,50.9c-0.4,0-0.7-0.1-1-0.4l-6.7-6.7c-0.5-0.5-0.5-1.4,0-2c0.3-0.3,0.6-0.4,1-0.4c0.4,0,0.7,0.1,1,0.4
	l5.7,5.7l9-9c0.3-0.3,0.6-0.4,1-0.4c0.4,0,0.7,0.1,1,0.4c0.3,0.3,0.4,0.6,0.4,1c0,0.4-0.1,0.7-0.4,1l-10,10
	C62.1,50.7,61.7,50.9,61.3,50.9z"/>
<path class="st0" d="M46.3,92c-0.8,0-1.4-0.6-1.4-1.4c0-0.8,0.6-1.4,1.4-1.4H73c0.8,0,1.4,0.6,1.4,1.4c0,0.8-0.6,1.4-1.4,1.4H46.3z"
	/>
<path class="st2" d="M63,60.9c-10,0-18.1-8.1-18.1-18.1S53,24.7,63,24.7s18.1,8.1,18.1,18.1S73,60.9,63,60.9z M63,27.5
	c-8.4,0-15.3,6.9-15.3,15.3S54.6,58.1,63,58.1s15.3-6.9,15.3-15.3S71.4,27.5,63,27.5z"/>
</svg>
