<?xml version="1.0" encoding="utf-8"?>
<!-- Generator: Adobe Illustrator 22.0.1, SVG Export Plug-In . SVG Version: 6.00 Build 0)  -->
<svg version="1.1" id="Layer_1" xmlns="http://www.w3.org/2000/svg" xmlns:xlink="http://www.w3.org/1999/xlink" x="0px" y="0px"
	 viewBox="0 0 120 120" style="enable-background:new 0 0 120 120;" xml:space="preserve">
<style type="text/css">
	.st0{fill:none;}
	.st1{fill:#F47D31;}
	.st2{fill:#333333;}
	.st3{fill:#63A4D9;}
</style>
<g>
	<rect x="45.2" y="46" class="st0" width="8.8" height="0.3"/>
	<rect x="57.3" y="46" class="st0" width="5.5" height="0.3"/>
	<polygon class="st0" points="16.8,74.8 27.7,74.8 27.8,71.5 16.8,71.5 	"/>
	<rect x="66" y="46" class="st0" width="8.8" height="0.3"/>
	<polygon class="st0" points="92.3,74.8 103.2,74.8 103.2,71.5 92.2,71.5 	"/>
	<path class="st0" d="M83.5,59.5h7l-0.4-9.8H29.8l-0.4,9.8H77c0.9,0,1.6,0.7,1.6,1.6s-0.7,1.6-1.6,1.6H31.5L30,96.6
		c1.7-0.2,2.9-0.6,4.1-1.2c0.5-0.2,0.9-0.5,1.4-0.7c2-1.1,4.3-2.4,8.7-2.4c4.4,0,6.7,1.3,8.7,2.4c1.9,1.1,3.6,2,7.1,2
		c3.5,0,5.2-0.9,7.1-2c2-1.1,4.3-2.4,8.7-2.4c4.4,0,6.7,1.3,8.7,2.4c1.6,0.9,3,1.7,5.4,1.9l-1.5-33.8h-5c-0.9,0-1.6-0.7-1.6-1.6
		S82.6,59.5,83.5,59.5z"/>
	<path class="st1" d="M110,35.4c-0.9-0.1-1.7,0.5-1.9,1.4l-4.7,31.4H92.1l-0.2-5.5h0.5c0.4,0,0.9-0.2,1.2-0.5
		c0.3-0.3,0.5-0.8,0.5-1.2l-0.6-13.1c0-0.9-0.8-1.6-1.6-1.6H78.1V46h-3.3v0.3H66V46h-3.3v0.3h-5.5V46H54v0.3h-8.8V46h-3.3v0.3H28.3
		c-0.9,0-1.6,0.7-1.6,1.6L26.1,61c0,0.4,0.1,0.9,0.5,1.2c0.3,0.3,0.7,0.5,1.2,0.5h0.5l-0.2,5.5H16.6l-4.7-31.4
		c-0.1-0.9-1-1.5-1.9-1.4c-0.9,0.1-1.5,1-1.4,1.9L13.5,70v34.9c0,0.9,0.7,1.6,1.6,1.6c0.9,0,1.6-0.7,1.6-1.6V78.1h10.7l-0.9,20.2
		c0,0.4,0.1,0.9,0.5,1.2c0.3,0.3,0.7,0.5,1.2,0.5c2,0,3.6-0.3,4.9-0.7v5.6c0,0.9,0.7,1.6,1.6,1.6c0.9,0,1.6-0.7,1.6-1.6v-7
		c0.2-0.1,0.3-0.2,0.5-0.3c1.6-0.9,3-1.7,5.5-1.9v9.2c0,0.9,0.7,1.6,1.6,1.6c0.9,0,1.6-0.7,1.6-1.6v-9.2c2.5,0.2,3.9,1,5.5,1.9
		c2,1.1,4.3,2.4,8.7,2.4c4.4,0,6.7-1.3,8.7-2.4c1.6-0.9,3-1.7,5.5-1.9v9.2c0,0.9,0.7,1.6,1.6,1.6c0.9,0,1.6-0.7,1.6-1.6v-9.2
		c2.5,0.2,3.9,1,5.5,1.9c0.2,0.1,0.3,0.2,0.5,0.3v7c0,0.9,0.7,1.6,1.6,1.6c0.9,0,1.6-0.7,1.6-1.6v-5.6c1.3,0.4,2.9,0.7,4.9,0.7
		c0.4,0,0.9-0.2,1.2-0.5c0.3-0.3,0.5-0.8,0.5-1.2l-0.9-20.2h10.7v26.8c0,0.9,0.7,1.6,1.6,1.6c0.9,0,1.6-0.7,1.6-1.6V70l4.9-32.7
		C111.5,36.4,110.9,35.5,110,35.4z M27.7,74.8H16.8v-3.3h11L27.7,74.8z M83.5,62.7h5L90,96.6c-2.4-0.2-3.8-1-5.4-1.9
		c-2-1.1-4.3-2.4-8.7-2.4c-4.4,0-6.7,1.3-8.7,2.4c-1.9,1.1-3.6,2-7.1,2c-3.5,0-5.2-0.9-7.1-2c-2-1.1-4.3-2.4-8.7-2.4
		c-4.4,0-6.7,1.3-8.7,2.4c-0.5,0.3-0.9,0.5-1.4,0.7c-1.1,0.6-2.3,1-4.1,1.2l1.5-33.8H77c0.9,0,1.6-0.7,1.6-1.6s-0.7-1.6-1.6-1.6
		H29.4l0.4-9.8h60.3l0.4,9.8h-7c-0.9,0-1.6,0.7-1.6,1.6S82.6,62.7,83.5,62.7z M103.2,74.8H92.3l-0.1-3.3h11V74.8z"/>
	<path class="st2" d="M61.6,24.7v-9.5c0-0.9-0.7-1.6-1.6-1.6c-0.9,0-1.6,0.7-1.6,1.6v9.5c-2.5,0.7-4.4,3-4.4,5.8V46h3.3V30.5
		c0-1.5,1.2-2.7,2.7-2.7s2.7,1.2,2.7,2.7V46H66V30.5C66,27.7,64.2,25.4,61.6,24.7z"/>
	<path class="st3" d="M81.3,35.9v-5.5c0-0.9-0.7-1.6-1.6-1.6h-6.6c-0.9,0-1.6,0.7-1.6,1.6v5.5c0,2.1,1.4,4,3.3,4.6V46h3.3v-5.4
		C80,39.9,81.3,38.1,81.3,35.9z M78.1,35.9c0,0.9-0.7,1.6-1.6,1.6c-0.9,0-1.6-0.7-1.6-1.6v-3.8h3.3V35.9z"/>
	<path class="st3" d="M45.2,40.6c1.9-0.7,3.3-2.5,3.3-4.6v-5.5c0-0.9-0.7-1.6-1.6-1.6h-6.6c-0.9,0-1.6,0.7-1.6,1.6v5.5
		c0,2.1,1.4,4,3.3,4.6V46h3.3V40.6z M43.6,37.6c-0.9,0-1.6-0.7-1.6-1.6v-3.8h3.3v3.8C45.2,36.8,44.5,37.6,43.6,37.6z"/>
</g>
</svg>
