<?xml version="1.0" encoding="utf-8"?>
<!-- Generator: Adobe Illustrator 22.0.1, SVG Export Plug-In . SVG Version: 6.00 Build 0)  -->
<svg version="1.1" id="Layer_1" xmlns="http://www.w3.org/2000/svg" xmlns:xlink="http://www.w3.org/1999/xlink" x="0px" y="0px"
	 viewBox="0 0 120 120" style="enable-background:new 0 0 120 120;" xml:space="preserve">
<style type="text/css">
	.st0{fill:#63A4D9;}
	.st1{fill:#F47D31;}
	.st2{fill:#333333;}
</style>
<g>
	<path class="st0" d="M58.4,67.1c-0.4,0-0.8-0.2-1.1-0.5l-6.2-6.3c-0.6-0.6-0.6-1.6,0-2.3c0.3-0.3,0.7-0.5,1.1-0.5s0.8,0.2,1.1,0.5
		l5.1,5.1l8.2-8.2c0.3-0.3,0.7-0.5,1.1-0.5s0.8,0.2,1.1,0.5c0.3,0.3,0.5,0.7,0.5,1.1s-0.2,0.8-0.5,1.1l-9.4,9.4
		C59.3,66.9,58.9,67.1,58.4,67.1z"/>
	<path class="st0" d="M58.4,66.8c-0.3,0-0.7-0.1-0.9-0.4l-6.2-6.2c-0.5-0.5-0.5-1.3,0-1.8c0.2-0.2,0.6-0.4,0.9-0.4s0.7,0.1,0.9,0.4
		l5.3,5.3l8.5-8.5c0.2-0.2,0.6-0.4,0.9-0.4s0.7,0.1,0.9,0.4c0.2,0.2,0.4,0.6,0.4,0.9c0,0.3-0.1,0.7-0.4,0.9l-9.4,9.4
		C59.1,66.6,58.8,66.8,58.4,66.8z"/>
	<g>
		<g>
			<path class="st1" d="M60,105.3c-0.2,0-0.4,0-0.5-0.1l-4.5-1.3c-9.8-2.9-18.3-8.8-24.4-17.1c-6.1-8.2-9.4-18-9.4-28.2v-32
				c0-1,0.8-1.9,1.9-1.9h73.8c1,0,1.9,0.8,1.9,1.9v32c0,10.3-3.2,20-9.4,28.2C83.3,95,74.8,100.9,65,103.9l-4.5,1.3
				C60.4,105.3,60.2,105.3,60,105.3z M25,58.6c0,19.4,12.5,36.2,31.1,41.8l3.9,1.2l3.9-1.2C82.5,94.8,95,78,95,58.6V28.4H25V58.6z"
				/>
			<path class="st1" d="M96.9,25H23.1c-0.9,0-1.6,0.7-1.6,1.6v32c0,10.2,3.2,19.9,9.3,28.1c6.1,8.2,14.5,14,24.2,17l4.5,1.3
				c0.1,0,0.3,0.1,0.4,0.1s0.3,0,0.4-0.1l4.5-1.3c9.8-2.9,18.1-8.8,24.2-17c6.1-8.2,9.3-17.9,9.3-28.1v-32
				C98.4,25.7,97.7,25,96.9,25z M95.3,58.6c0,19.5-12.6,36.4-31.3,42l-4,1.2l-4-1.2c-18.7-5.6-31.3-22.5-31.3-42V28.1h70.6V58.6z"/>
		</g>
	</g>
	<g>
		<g>
			<path class="st2" d="M60,83.3c-6,0-11.7-2.3-15.9-6.6s-6.6-9.9-6.6-15.9s2.3-11.7,6.6-15.9c3.5-3.5,7.9-5.7,12.7-6.4
				c1-0.1,2.1-0.2,3.1-0.2c3.7,0,7.4,0.9,10.6,2.6c0.4,0.2,0.8,0.6,0.9,1.1s0.1,1-0.1,1.4c-0.3,0.6-1,1-1.6,1
				c-0.3,0-0.6-0.1-0.9-0.2C66.1,42.8,63,42,60,42c-5,0-9.7,2-13.2,5.5c-3.5,3.5-5.5,8.3-5.5,13.3s2,9.7,5.5,13.3
				c3.5,3.5,8.3,5.5,13.3,5.5s9.7-2,13.3-5.5c5.9-5.9,7.2-15.1,3.2-22.4c-0.5-0.9-0.2-2,0.7-2.5c0.3-0.2,0.6-0.2,0.9-0.2
				c0.7,0,1.3,0.4,1.6,1c2.3,4.2,3.2,9.1,2.6,13.9c-0.7,4.9-2.9,9.4-6.4,12.9C71.7,80.9,66,83.3,60,83.3z"/>
			<path class="st2" d="M79.4,50c-0.4-0.8-1.4-1-2.1-0.6c-0.8,0.4-1,1.4-0.6,2.1c4.1,7.4,2.8,16.7-3.2,22.7
				c-3.6,3.6-8.4,5.6-13.5,5.6s-9.9-2-13.5-5.6c-3.6-3.6-5.6-8.4-5.6-13.5c0-5.1,2-9.9,5.6-13.5c6-6,15-7.3,22.4-3.3
				c0.8,0.4,1.7,0.1,2.1-0.6c0.4-0.8,0.1-1.7-0.6-2.1c-4.1-2.2-8.9-3-13.6-2.4c-4.8,0.7-9.1,2.8-12.6,6.3c-4.2,4.2-6.5,9.8-6.5,15.7
				s2.3,11.5,6.5,15.7S54.1,83,60,83s11.5-2.3,15.7-6.5c3.5-3.5,5.7-7.9,6.3-12.7C82.6,59,81.7,54.2,79.4,50z"/>
		</g>
	</g>
	<g>
		<g>
			<path class="st1" d="M74.6,48.1c-0.5,0-1-0.2-1.3-0.6c-0.4-0.4-0.6-0.8-0.6-1.3c0-0.5,0.2-1,0.6-1.3c0.4-0.3,0.8-0.5,1.3-0.5
				c0.5,0,1,0.2,1.3,0.6c0.4,0.4,0.6,0.8,0.6,1.3c0,0.5-0.2,1-0.6,1.3C75.6,47.9,75.1,48.1,74.6,48.1z"/>
			<path class="st1" d="M75.7,45.1L75.7,45.1c-0.6-0.6-1.6-0.6-2.2,0c-0.6,0.6-0.6,1.6,0,2.2l0,0c0.3,0.3,0.7,0.5,1.1,0.5
				c0.4,0,0.8-0.2,1.1-0.5C76.3,46.7,76.3,45.7,75.7,45.1z"/>
		</g>
	</g>
</g>
</svg>
