<?xml version="1.0" encoding="utf-8"?>
<!-- Generator: Adobe Illustrator 22.0.1, SVG Export Plug-In . SVG Version: 6.00 Build 0)  -->
<svg version="1.1" id="Layer_1" xmlns="http://www.w3.org/2000/svg" xmlns:xlink="http://www.w3.org/1999/xlink" x="0px" y="0px"
	 viewBox="0 0 120 120" style="enable-background:new 0 0 120 120;" xml:space="preserve">
<style type="text/css">
	.st0{fill:#F47D31;}
	.st1{fill:#63A4D9;}
</style>
<path class="st0" d="M23.2,107.2c-0.8,0-1.5-0.7-1.5-1.5v-6.9c0-4.5,1.4-8.9,4.2-12.5c2.7-3.6,6.5-6.2,10.9-7.4l11-3.1
	c2.4-0.7,4.1-2.9,4.1-5.5v-2.7l-0.1-0.1c-4.2-3.1-6.8-7.9-7.3-13l0-0.2l-0.2,0c-2.9-0.4-5.2-2.9-5.2-5.9c0-2.3,1.4-4.4,3.5-5.4
	l0.2-0.1l-0.1-0.3c-1.1-3.1-1.6-6.4-1.6-9.9c0-8.8,7.1-17.8,19-17.8c4,0,7.3,1,10.1,3.1l0.1,0.1l0.1,0c0.6-0.2,1.2-0.3,1.8-0.3
	c2.8,0,5.6,1.7,8.1,4.8c5.4,6.9,3.5,15.3,1.9,19.7l-0.1,0.3l0.3,0.1c2.5,0.7,4.3,3.1,4.3,5.7c0,3-2.2,5.5-5.2,5.9l-0.2,0l0,0.2
	c-0.5,5-3.1,9.7-7.1,12.8l-0.1,0.1v2.9c0,2.5,1.7,4.8,4.1,5.5l11,3.1c1.4,0.4,2.8,1,4.1,1.7c0.4,0.2,0.6,0.5,0.7,0.9
	c0.1,0.4,0.1,0.8-0.1,1.2c-0.3,0.5-0.8,0.8-1.3,0.8c-0.3,0-0.5-0.1-0.7-0.2c-1.1-0.6-2.3-1.1-3.5-1.4l-11-3.1
	c-0.7-0.2-1.3-0.5-1.9-0.8l-0.2-0.1l-0.2,0.1c-3.4,2.9-7.7,4.5-12.1,4.5c-4.5,0-8.8-1.6-12.1-4.5l-0.2-0.1l-0.2,0.1
	c-0.6,0.3-1.2,0.6-1.9,0.8l-11,3.1c-7.6,2.1-12.8,9.1-12.8,17v5.4h9c0.8,0,1.5,0.7,1.5,1.5s-0.7,1.5-1.5,1.5H23.2z M55,70.2
	c0,1.9-0.6,3.8-1.8,5.3L53,75.7l0.2,0.2c2.8,2.2,6.2,3.4,9.8,3.4c3.6,0,7-1.2,9.8-3.4l0.2-0.2l-0.2-0.2C71.7,74,71,72.1,71,70.2v-1
	l-0.4,0.2c-2.4,1.1-5,1.7-7.7,1.7c-2.6,0-5.1-0.5-7.5-1.6L55,69.3V70.2z M66.6,35c-3,2.7-6.6,4-11,4c-2.9,0-5.2,1.2-6.7,3.6
	C48,44,47.6,45.5,47.5,46l0,6.7c0,8.5,6.9,15.4,15.4,15.4s15.4-6.9,15.4-15.4v-8.4l0-0.1c-0.4-0.7-1.8-2.8-4.5-5.1
	c-0.6-0.5-1.6-1-2.7-1.5c-1.4-0.7-3-1.4-4.1-2.5l-0.2-0.2L66.6,35z M43.6,45.7c-0.9,0.5-1.5,1.5-1.5,2.6c0,1.2,0.8,2.3,1.9,2.7
	l0.4,0.1v-4.6l0-0.1c-0.1-0.2-0.2-0.4-0.3-0.6l-0.1-0.3L43.6,45.7z M81.4,51.1l0.4-0.1c1.1-0.4,1.9-1.5,1.9-2.7s-0.8-2.3-1.9-2.7
	l-0.4-0.1V51.1z M60,17.8c-10,0-15.9,7.5-15.9,14.8c0,3,0.5,5.9,1.4,8.7l0.2,0.6l0.3-0.6c0.1-0.1,0.2-0.3,0.3-0.4
	c1.4-2.3,4.2-5,9.3-5c4.4,0,7.6-1.4,10.3-4.5c0.3-0.3,0.7-0.5,1.1-0.5c0.1,0,0.2,0,0.3,0c0.5,0.1,1,0.5,1.2,1c0.4,1.1,2.3,2,4,2.8
	c1.3,0.6,2.5,1.2,3.4,2c1.3,1.1,2.4,2.3,3.4,3.5l0.4,0.4l0.2-0.5c1.1-3.6,2.4-10.4-1.8-15.7c-1.8-2.4-3.9-3.7-5.7-3.7
	c-0.5,0-1.1,0.1-1.6,0.4c-0.2,0.1-0.4,0.2-0.7,0.2c-0.4,0-0.7-0.1-1-0.4C67.5,19.6,64.9,17.8,60,17.8z"/>
<g>
	<g>
		<path class="st0" d="M42.7,104.4c-0.3-0.3-0.8-0.5-1.3-0.5s-0.9,0.2-1.3,0.5c-0.3,0.3-0.5,0.8-0.5,1.3s0.2,0.9,0.5,1.3
			c0.3,0.3,0.8,0.5,1.3,0.5s0.9-0.2,1.3-0.5c0.3-0.3,0.5-0.8,0.5-1.3S43,104.7,42.7,104.4z"/>
		<path class="st0" d="M41.4,107.2c-0.4,0-0.8-0.2-1.1-0.4c-0.3-0.3-0.4-0.7-0.4-1.1s0.2-0.8,0.4-1.1c0.3-0.3,0.7-0.4,1.1-0.4
			s0.8,0.2,1.1,0.4c0.3,0.3,0.4,0.7,0.4,1.1s-0.2,0.8-0.4,1.1C42.2,107,41.8,107.2,41.4,107.2z"/>
	</g>
</g>
<g>
	<g>
		<path d="M99.3,84.8c-0.8-0.9-1.9-0.8-2.6-0.2c-0.7,0.6-0.9,1.7-0.2,2.6c0,0,0,0,0,0c0.4,0.4,0.9,0.6,1.4,0.6
			c0.4,0,0.9-0.2,1.2-0.5C99.8,86.8,100.1,85.7,99.3,84.8z"/>
		<path d="M98,87.5c-0.3,0-0.8-0.1-1.2-0.5c-0.6-0.8-0.4-1.7,0.1-2.2c0.3-0.2,0.6-0.4,1-0.4c0.3,0,0.8,0.1,1.2,0.5
			c0.6,0.7,0.4,1.7-0.1,2.2C98.7,87.4,98.3,87.5,98,87.5z"/>
	</g>
</g>
<path class="st0" d="M55.6,51.7c-0.4,0-0.8-0.2-1.1-0.4C54.2,51,54,50.6,54,50.2s0.2-0.8,0.4-1.1c0.3-0.3,0.7-0.4,1.1-0.4
	s0.8,0.2,1.1,0.4c0.3,0.3,0.4,0.7,0.4,1.1s-0.2,0.8-0.4,1.1C56.3,51.5,56,51.7,55.6,51.7z"/>
<path class="st0" d="M70.4,51.7c-0.4,0-0.8-0.2-1.1-0.4c-0.3-0.3-0.4-0.7-0.4-1.1s0.2-0.8,0.4-1.1c0.3-0.3,0.7-0.4,1.1-0.4
	s0.8,0.2,1.1,0.4c0.3,0.3,0.4,0.7,0.4,1.1s-0.2,0.8-0.4,1.1C71.2,51.5,70.8,51.7,70.4,51.7z"/>
<path class="st0" d="M63,61.2c-0.8,0-1.6-0.2-2.4-0.5c-0.4-0.2-0.6-0.5-0.8-0.8c-0.1-0.4-0.1-0.8,0-1.2c0.2-0.5,0.8-0.9,1.4-0.9
	c0.2,0,0.4,0,0.6,0.1c0.3,0.2,0.7,0.2,1.1,0.2s0.8-0.1,1.1-0.2c0.2-0.1,0.4-0.1,0.6-0.1c0.6,0,1.1,0.3,1.4,0.9
	c0.2,0.4,0.2,0.8,0,1.2s-0.4,0.7-0.8,0.8C64.6,61,63.8,61.2,63,61.2z"/>
<path class="st0" d="M48.4,107.2c-0.8,0-1.5-0.7-1.5-1.5s0.7-1.5,1.5-1.5h22.8l-0.1-0.1c0.9,0,2.8-0.1,7-0.1c9,0,22.7,0.1,22.8,0.1
	l0.3,0v-5.4c0-2.1-0.4-4.1-1.1-6c-0.3-0.8,0.1-1.7,0.9-1.9c0.2-0.1,0.3-0.1,0.5-0.1c0.6,0,1.2,0.4,1.4,1c0.8,2.3,1.2,4.7,1.2,7.1
	v6.9c0,0.8-0.7,1.5-1.5,1.5H48.4z"/>
<path d="M75.6,106.6c-0.2,0-0.5,0-0.8-0.1c-9.3-3.7-12.5-10.8-11.5-16c0.8-3.9,3.5-6.3,7.1-6.3c1.7,0,3.4,0.6,5.2,1.7
	c1.7-1.1,3.5-1.7,5.2-1.7c3.6,0,6.4,2.5,7.1,6.3l0,0c0.5,2.8-0.1,5.9-1.9,8.7c-1.9,3.1-5.2,5.6-9.5,7.4
	C76.1,106.6,75.8,106.6,75.6,106.6z M70.4,86.6c-2.3,0-4.1,1.6-4.6,4.3c-0.8,4.2,1.9,10,9.8,13.1c7.9-3.3,10.6-9,9.8-13.2
	c-0.5-2.6-2.3-4.3-4.6-4.3c-1.4,0-2.9,0.6-4.4,1.7c-0.5,0.3-1,0.3-1.5,0C73.3,87.1,71.8,86.6,70.4,86.6z"/>
<path d="M75.6,106.3c-0.2,0-0.4,0-0.7-0.1c-9.2-3.7-12.3-10.5-11.3-15.7c0.7-3.7,3.4-6.1,6.8-6.1c1.6,0,3.3,0.5,5,1.6l0.2,0.1
	l0.2-0.1c1.6-1.1,3.3-1.6,5-1.6c3.4,0,6.1,2.4,6.8,6c0.5,2.8-0.1,5.8-1.9,8.5c-1.9,3-5.1,5.5-9.3,7.3
	C76,106.3,75.8,106.3,75.6,106.3z M70.4,86.3c-2.5,0-4.4,1.7-4.9,4.6c-0.8,4.4,2,10.2,10,13.5l0.1,0l0.1,0c8-3.3,10.8-9.2,10-13.5
	c-0.5-2.8-2.4-4.5-4.9-4.5c-1.4,0-3,0.6-4.6,1.8c-0.2,0.1-0.4,0.2-0.6,0.2c-0.2,0-0.4-0.1-0.6-0.2C73.4,86.8,71.9,86.3,70.4,86.3z"
	/>
<path class="st1" d="M76.2,98.1c-0.4,0-0.8-0.2-1.1-0.4l-5.3-5.3c-0.6-0.6-0.6-1.6,0-2.1c0.3-0.3,0.7-0.4,1.1-0.4s0.8,0.2,1.1,0.4
	l4.2,4.2L87,83.6c0.3-0.3,0.7-0.4,1.1-0.4s0.8,0.2,1.1,0.4c0.3,0.3,0.4,0.7,0.4,1.1c0,0.4-0.2,0.8-0.4,1.1L77.3,97.6
	C77,97.9,76.6,98.1,76.2,98.1z"/>
<path class="st1" d="M76.2,97.8c-0.3,0-0.6-0.1-0.9-0.4l-5.3-5.3c-0.5-0.5-0.5-1.2,0-1.7c0.2-0.2,0.5-0.4,0.9-0.4
	c0.3,0,0.6,0.1,0.9,0.4l4.4,4.4l11-11c0.2-0.2,0.5-0.4,0.9-0.4c0.3,0,0.6,0.1,0.9,0.4c0.2,0.2,0.4,0.5,0.4,0.9
	c0,0.3-0.1,0.6-0.4,0.9L77,97.4C76.8,97.6,76.5,97.8,76.2,97.8z"/>
</svg>
