<?xml version="1.0" encoding="utf-8"?>
<!-- Generator: Adobe Illustrator 21.0.2, SVG Export Plug-In . SVG Version: 6.00 Build 0)  -->
<svg version="1.1" id="Layer_1" xmlns="http://www.w3.org/2000/svg" xmlns:xlink="http://www.w3.org/1999/xlink" x="0px" y="0px"
	 viewBox="0 0 48 48" style="enable-background:new 0 0 48 48;" xml:space="preserve">
<style type="text/css">
	.st0{fill:url(#SVGID_1_);}
	.st1{fill:#FFFFFF;}
</style>
<g id="Icons">
	<g id="Icons_8_">
		<g>
			
				<linearGradient id="SVGID_1_" gradientUnits="userSpaceOnUse" x1="24" y1="66.033" x2="24" y2="11.0326" gradientTransform="matrix(1 0 0 1 0 -15)">
				<stop  offset="9.694000e-02" style="stop-color:#FFD879"/>
				<stop  offset="0.1539" style="stop-color:#FCCB76"/>
				<stop  offset="0.2583" style="stop-color:#F5AA6C"/>
				<stop  offset="0.3976" style="stop-color:#E9755E"/>
				<stop  offset="0.449" style="stop-color:#E45F58"/>
				<stop  offset="0.6786" style="stop-color:#D22A9C"/>
				<stop  offset="1" style="stop-color:#6968DF"/>
			</linearGradient>
			<circle class="st0" cx="24" cy="24" r="24"/>
			<g>
				<path class="st1" d="M24,29.8c-3.2,0-5.8-2.6-5.8-5.8s2.6-5.8,5.8-5.8c3.2,0,5.8,2.6,5.8,5.8S27.2,29.8,24,29.8z M24,19.8
					c-2.3,0-4.2,1.9-4.2,4.2s1.9,4.2,4.2,4.2c2.3,0,4.2-1.9,4.2-4.2S26.3,19.8,24,19.8z"/>
			</g>
			<circle class="st1" cx="30.6" cy="17.6" r="0.7"/>
			<g>
				<path class="st1" d="M29,35.4H19c-3.5,0-6.4-2.9-6.4-6.4V19c0-3.5,2.9-6.4,6.4-6.4h10c3.5,0,6.4,2.9,6.4,6.4v10
					C35.4,32.5,32.5,35.4,29,35.4z M19,14.2c-2.6,0-4.8,2.2-4.8,4.8v10c0,2.6,2.2,4.8,4.8,4.8h10c2.6,0,4.8-2.2,4.8-4.8V19
					c0-2.6-2.2-4.8-4.8-4.8H19z"/>
			</g>
		</g>
	</g>
</g>
</svg>
